<?xml version="1.0" standalone="no"?>
<!DOCTYPE svg PUBLIC "-//W3C//DTD SVG 1.1//EN" "http://www.w3.org/Graphics/SVG/1.1/DTD/svg11.dtd" >
<svg xmlns="http://www.w3.org/2000/svg">
<metadata>
Created by FontForge 20120731 at Mon Jun  6 12:57:54 2016
 By admin
</metadata>
<defs>
<font id="iconfont" horiz-adv-x="1024" >
  <font-face 
    font-family="iconfont"
    font-weight="500"
    font-stretch="normal"
    units-per-em="1024"
    panose-1="2 0 6 9 0 0 0 0 0 0"
    ascent="896"
    descent="-128"
    x-height="660"
    cap-height="827"
    bbox="14 -128 1010 875"
    underline-thickness="50"
    underline-position="-100"
    unicode-range="U+0021-E617"
  />
<missing-glyph 
d="M34 0v682h272v-682h-272zM68 34h204v614h-204v-614z" />
    <glyph glyph-name=".notdef" 
d="M34 0v682h272v-682h-272zM68 34h204v614h-204v-614z" />
    <glyph glyph-name=".null" horiz-adv-x="0" 
 />
    <glyph glyph-name="nonmarkingreturn" 
 />
    <glyph glyph-name="exclam" unicode="!" 
d="M384 128h256v-192h-256v192zM640 192h-256l-64 640h384z" />
    <glyph glyph-name="asterisk" unicode="*" 
d="M512 832l51 -324l266 193l-193 -266l324 -51l-324 -51l193 -266l-266 193l-51 -324l-51 324l-266 -193l193 266l-324 51l324 51l-193 266l266 -193z" />
    <glyph glyph-name="question" unicode="?" 
d="M640 192h-256v96q0 66 47 113t113 47h64q13 0 22.5 9.5t9.5 22.5v192q0 13 -9.5 22.5t-22.5 9.5h-192q-13 0 -22.5 -9.5t-9.5 -22.5v-160h-256v160q0 66 47 113t113 47h448q66 0 113 -47t47 -113v-192q0 -66 -47 -113t-113 -47h-64q-13 0 -22.5 -9.5t-9.5 -22.5v-96z
M384 128h256v-192h-256v192z" />
    <glyph glyph-name="A" unicode="A" 
d="M171 450l301 302q75 75 181.5 75t181 -75t74.5 -181t-75 -181l-392 -392q-56 -57 -135.5 -57t-135.5 56.5t-56 136t56 135.5l301 302q38 37 91 37t90.5 -37.5t37.5 -90.5t-38 -90l-241 -242l-60 61l241 241q13 13 13 30.5t-12.5 30t-30.5 12.5t-30 -13l-302 -301
q-31 -32 -31 -76t31 -75t75.5 -31t75.5 31l392 392q50 50 50 120.5t-50 120.5t-120.5 50t-120.5 -50l-302 -301z" />
    <glyph glyph-name="B" unicode="B" 
d="M960 576v-597h-896v597h896zM299 427v-192h426v192h-426zM405 363h214v-43h-214v43zM64 789h896v-128h-896v128z" />
    <glyph glyph-name="C" unicode="C" 
d="M832 832v-448l85 -85v-363h-768v896h683zM747 747h-86v-363l-85 -85v-278h171v726zM512 640h-171v-85h171v85z" />
    <glyph glyph-name="D" unicode="D" 
d="M896 832h-768v-896h85l43 43h512l43 -43h85v896zM768 85h-512v256h512v-256zM768 448h-512v256h512v-256zM597 576h-170l42 85h86zM597 213h-170l42 86h86z" />
    <glyph glyph-name="E" unicode="E" 
d="M537.5 156.5q-130.5 -14.5 -253 28t-215.5 135.5l-13 13l10 15q70 111 180 180t240.5 83.5t253 -28t215.5 -135.5l13 -13l-10 -15q-70 -111 -180 -180t-240.5 -83.5zM114 339q85 -79 194 -115t225 -23q110 13 186 67t146 156q-90 84 -177 119.5t-197 23.5
q-115 -13 -213 -72.5t-164 -155.5zM482 244q93 11 151.5 84t48.5 166q-1 3 -2 8.5t-2 7.5q-83 20 -169 13q20 -20 23 -46q3 -31 -16.5 -55.5t-50.5 -28t-55 16t-28 50.5q-2 19 6 38q-82 -28 -150 -79q19 -84 88.5 -134.5t155.5 -40.5z" />
    <glyph glyph-name="F" unicode="F" 
d="M875 832v-640l-256 -256h-470v896h726zM235 747v-726h384v171h170v555h-554zM427 597h170v-85h-170v85zM384 448h299v-43h-299v43zM341 363h342v-43h-342v43z" />
    <glyph glyph-name="G" unicode="G" 
d="M384 213h-171q-35 0 -60 25t-25 61v213q0 18 12.5 30.5t30.5 12.5h256q17 0 29.5 -12.5t12.5 -30.5v-213q0 -36 -25 -61t-60 -25zM171 469v-170q0 -18 12.5 -30.5t29.5 -12.5h171q18 0 30.5 12.5t12.5 30.5v170h-256zM811 213h-171q-35 0 -60 25t-25 61v213
q0 18 12.5 30.5t29.5 12.5h256q18 0 30.5 -12.5t12.5 -30.5v-213q0 -36 -25 -61t-60 -25zM597 469v-170q0 -18 12.5 -30.5t30.5 -12.5h171q17 0 29.5 12.5t12.5 30.5v170h-256zM469 469h86v-85h-86v85zM896 469h43v-85h-43v85zM85 469h43v-85h-43v85z" />
    <glyph glyph-name="K" unicode="K" 
d="M512 832l213 -213v-86l-85 -85l43 -43v-64l42 -42h86v-86l42 -42h64v-64l22 -15v-71l-86 -85h-85l-320 320l-85 -85h-86l-213 213v85l363 363h85zM512 299v-43l256 -277h43zM362.5 619q-35.5 0 -60.5 -25t-25 -60.5t25 -60.5t60.5 -25t60.5 25t25 60.5t-25 60.5t-60.5 25
z" />
    <glyph glyph-name="M" unicode="M" 
d="M512 320l384 320l-384 -192l-384 192zM960 64h-896v640h896v-640zM896 640h-768v-512h768v512z" />
    <glyph glyph-name="P" unicode="P" 
d="M832 832v-448l85 -85v-363h-810v896h725zM747 747h-214v-363l-85 -85v-278h299v726zM405 640h-85v-171h85v171zM661 704h43v-555h-43v555zM576 619h43v-555h-43v555z" />
    <glyph glyph-name="S" unicode="S" 
d="M661 405l-178 36q-11 22 -31.5 36t-46.5 14q-35 0 -60 -25t-25 -60.5t25 -60.5t60 -25q49 0 74 43h182v42zM107 832v-896h85l43 43h554l43 -43h85v896h-810zM832 64h-640v683h640v-683zM235 704v-597h554v597h-554zM747 149h-470v512h470v-512z" />
    <glyph glyph-name="U" unicode="U" 
d="M512 577zM256 577q0 106 75 181t181 75t181 -75t75 -181t-75 -181t-181 -75t-181 75t-75 181zM896 64q0 -53 -112.5 -90.5t-271.5 -37.5t-271.5 37.5t-112.5 90.5q0 27 31 60t81 62.5t123 49.5t149 20t149 -20t123 -49.5t81 -62.5t31 -60z" />
    <glyph glyph-name="X" unicode="X" 
d="M783 837l-271 -272l-272 272l-181 -181l272 -272l-272 -271l181 -182l272 272l271 -272l182 182l-272 271l272 272z" />
    <glyph glyph-name="Y" unicode="Y" 
d="M376 -64l-362 362l181 181l181 -181l453 453l181 -181z" />
    <glyph glyph-name="c" unicode="c" 
d="M704 448l-256 256h-43v85h299v-170h171v-470h-171v299zM704 -107v171h256v555l-256 256h-384v-171h-256v-811h640zM149 -21v640h299v-171h171v-469h-470z" />
    <glyph glyph-name="d" unicode="d" 
d="M512 213l213 214h-128v341h-170v-341h-128zM896 0h-768v171h768v-171zM853 128h-85v-43h85v43zM683 128h-86v-43h86v43z" />
    <glyph glyph-name="e" unicode="e" 
d="M649 702l181 -181l-453 -453l-181 181zM920 611q19 19 19 45.5t-19 45.5l-90 91q-19 18 -45.5 18t-45.5 -18l-45 -46l181 -181zM332 23l-247 -66l66 247z" />
    <glyph glyph-name="i" unicode="i" 
d="M352 384q13 0 22.5 -9.5t9.5 -22.5v-224q0 -27 -18.5 -45.5t-45.5 -18.5h-64v-128h512v128h-64q-27 0 -45.5 18.5t-18.5 45.5v384h-320v-128h32zM512 704zM384 704q0 53 37.5 90.5t90.5 37.5t90.5 -37.5t37.5 -90.5t-37.5 -90.5t-90.5 -37.5t-90.5 37.5t-37.5 90.5z" />
    <glyph glyph-name="l" unicode="l" 
d="M768 213h-213l85 86h128q35 0 60 25t25 60t-25 60t-60 25h-110l-256 -256h-146q-71 0 -121 50t-50 121t50 121t121 50h213l-85 -86h-128q-35 0 -60 -25t-25 -60t25 -60t60 -25h110l256 256h146q71 0 121 -50t50 -121t-50 -121t-121 -50z" />
    <glyph glyph-name="m" unicode="m" 
d="M960 128h-576l-192 -192v192h-128v640h896v-640zM704 576h-512v-64h512v64zM832 384h-640v-64h640v64z" />
    <glyph glyph-name="p" unicode="p" 
d="M960 -64h-896v384h64v-192h768v192h64v-384zM832 192h-64v576h-512v-576h-64v640h640v-640zM576 512v-256h-128v256h-128l192 192l192 -192h-128z" />
    <glyph glyph-name="s" unicode="s" 
d="M603 656q75 -75 75 -181.5t-75 -181.5t-181.5 -75t-181.5 75t-75 181.5t75 181.5t181.5 75t181.5 -75zM648 701q-94 94 -226.5 94t-226.5 -94t-94 -226.5t94 -226.5q82 -81 196 -92t207 52l185 -186l91 91l-186 185q63 93 52 207t-92 196z" />
    <glyph glyph-name="x" unicode="x" 
d="M829 791l-317 -317l-317 317l-90 -90l317 -317l-317 -317l90 -90l317 317l317 -317l90 90l-317 317l317 317z" />
    <glyph glyph-name="y" unicode="y" 
d="M376 -64l-362 362l91 91l271 -272l543 543l91 -90z" />
    <glyph glyph-name="uniE601" unicode="&#xe601;" 
d="M640 340q40 -30 62.5 -74t22.5 -95q0 -89 -62.5 -151.5t-150.5 -62.5t-150.5 62.5t-62.5 151.5q0 51 22.5 95t62.5 74v343q0 53 37.5 90.5t90.5 37.5t90.5 -37.5t37.5 -90.5v-343zM597 683q0 35 -25 60t-60 25t-60 -25t-25 -60v-366q-39 -22 -62.5 -61t-23.5 -85
q0 -71 50 -121t121 -50t121 50t50 121q0 46 -23.5 85t-62.5 61v366zM512 171zM384 171q0 53 37.5 90.5t90.5 37.5t90.5 -37.5t37.5 -90.5t-37.5 -90.5t-90.5 -37.5t-90.5 37.5t-37.5 90.5zM469 341h86v-85h-86v85zM841 351l12 22l-12 21h-36l18 31l-12 22h-25l-18 -32
l-18 32h-25l-12 -22l18 -31h-36l-12 -21l12 -22h36l-18 -31l12 -21h25l18 31l18 -31h25l12 21l-18 31h36z" />
    <glyph glyph-name="uniE602" unicode="&#xe602;" 
d="M683 725.5q0 -21.5 24 -42.5q26 -21 26 -43t-26 -43h37q24 21 24 43t-24 43q-26 20 -26 42t26 43h-37q-24 -21 -24 -42.5zM768 725.5q0 -21.5 24 -42.5q27 -21 27 -43t-27 -43h37q24 21 24 43t-24 43q-26 20 -26 42t26 43h-37q-24 -21 -24 -42.5zM640 340
q40 -30 62.5 -74t22.5 -95q0 -89 -62.5 -151.5t-150.5 -62.5t-150.5 62.5t-62.5 151.5q0 51 22.5 95t62.5 74v343q0 53 37.5 90.5t90.5 37.5t90.5 -37.5t37.5 -90.5v-343zM597 683q0 35 -25 60t-60 25t-60 -25t-25 -60v-366q-39 -22 -62.5 -61t-23.5 -85q0 -71 50 -121
t121 -50t121 50t50 121q0 46 -23.5 85t-62.5 61v366zM512 171zM384 171q0 53 37.5 90.5t90.5 37.5t90.5 -37.5t37.5 -90.5t-37.5 -90.5t-90.5 -37.5t-90.5 37.5t-37.5 90.5zM469 683h86v-427h-86v427z" />
    <glyph glyph-name="uniE603" unicode="&#xe603;" 
d="M512 79l-301 -158l57 335l-243 237l336 49l151 305l151 -305l336 -49l-243 -237l57 -335z" />
    <glyph glyph-name="uniE604" unicode="&#xe604;" 
d="M853 811v-470l43 -42v-342h-725v854h682zM811 299l-43 42v384h-85v-384l-43 -42v-256h171v256z" />
    <glyph glyph-name="uniE605" unicode="&#xe605;" 
d="M960 0h-896v768h896v-768zM128 64h768v512h-768v-512z" />
    <glyph glyph-name="uniE606" unicode="&#xe606;" 
d="M128 256h768v-128h-768v128z" />
    <glyph glyph-name="uniE607" unicode="&#xe607;" 
d="M960 768h-768v-64h704v-576h64v640zM64 0h768v640h-768v-640zM128 448h640v-384h-640v384z" />
    <glyph glyph-name="uniE60A" unicode="&#xe60a;" 
d="M85 0h214v-43h-214v43zM171 85h42v-213h-42v213zM171 811v-683h42h43v597h512v-554h-128v-128h-299v-43v-43h299l213 214v640h-682zM427 597h170v-85h-170v85zM384 469h299v-42h-299v42zM341 384h342v-43h-342v43z" />
    <glyph glyph-name="uniE60B" unicode="&#xe60b;" 
d="M85 0h214v-43h-214v43zM171 85h42v-213h-42v213zM896 299l-85 85v427h-640v-683h85v-85h85v-86h555v342zM512 555h-171v85h171v-85zM725 43h-170v256l85 85v341h85v-682z" />
    <glyph glyph-name="uniE60C" unicode="&#xe60c;" 
d="M683 683h42v-512h-42v512zM597 597h43v-512h-43v512zM43 0h213v-43h-213v43zM128 85h43v-213h-43v213zM939 299l-86 85v427h-725v-683h85v-85h86v-86h640v342zM427 512h-86v171h86v-171zM768 43h-299v256l86 85v341h213v-682z" />
    <glyph glyph-name="uniE610" unicode="&#xe610;" 
d="M832 -64v896l-448 -448zM192 832h128v-896h-128v896z" />
    <glyph glyph-name="uniE611" unicode="&#xe611;" 
d="M704 -64v896l-448 -448z" />
    <glyph glyph-name="uniE612" unicode="&#xe612;" 
d="M320 832v-896l448 448z" />
    <glyph glyph-name="uniE613" unicode="&#xe613;" 
d="M192 832v-896l448 448zM704 832h128v-896h-128v896z" />
    <glyph glyph-name="uniE614" unicode="&#xe614;" 
d="M213 112h171v384h128l-213 229l-214 -229h128v-384zM725 43l214 213h-128v384h-171v-384h-128z" />
    <glyph glyph-name="uniE617" unicode="&#xe617;" 
d="M149 107h726v-171h-726v171zM235 192h554v-43h-554v43zM427 491h170v-128h-170v128zM597 491h-170l-86 128h342zM597 363h-170l-86 -128h342zM341 832h342v-171h-342v171z" />
  </font>
</defs>
</svg>
